<svg width="76" height="78" viewBox="0 0 76 78" fill="none" xmlns="http://www.w3.org/2000/svg">
<path d="M53.978 19.4867H51.4429C50.4693 19.4867 49.6789 18.6963 49.6789 17.7227C49.6789 16.7704 50.4693 15.978 51.4429 15.978H53.978C56.6539 15.978 59.0888 17.073 60.8527 18.8177C62.6167 20.5817 63.7118 23.0146 63.7118 25.7116C63.7118 28.4087 62.6167 30.8416 60.8527 32.6056C59.0888 34.3503 56.6558 35.4433 53.978 35.4433H41.1212C40.5119 36.5383 39.336 37.269 37.998 37.269C36.0316 37.269 34.4296 35.667 34.4296 33.7006C34.4296 31.713 36.0316 30.111 37.998 30.111C39.336 30.111 40.5119 30.8609 41.1212 31.9347H53.978C55.6803 31.9347 57.2419 31.2445 58.3793 30.111C59.4936 28.9948 60.2031 27.4351 60.2031 25.7116C60.2031 23.9882 59.4936 22.4267 58.3793 21.3104C57.2419 20.1749 55.6803 19.4867 53.978 19.4867Z" fill="#04CE78"/>
<path d="M31.775 9.75291V12.2668C31.775 13.2403 30.9845 14.0308 30.011 14.0308C29.0567 14.0308 28.2662 13.2403 28.2662 12.2668V9.75291C28.2662 7.05588 29.3613 4.62295 31.1253 2.85899C32.8893 1.09502 35.3222 0 38 0C40.6971 0 43.13 1.09502 44.894 2.85899C46.658 4.62295 47.7338 7.05588 47.7338 9.75291V22.5884C48.8288 23.2168 49.5575 24.3735 49.5575 25.7115C49.5575 27.6778 47.9555 29.2799 45.9891 29.2799C44.0226 29.2799 42.4206 27.6778 42.4206 25.7115C42.4206 24.3735 43.1512 23.2168 44.225 22.5884V9.75291C44.225 8.02943 43.5349 6.46785 42.3994 5.33236C41.2851 4.21615 39.7235 3.50864 38 3.50864C36.2765 3.50864 34.7362 4.21808 33.6006 5.33236C32.4632 6.46785 31.775 8.02943 31.775 9.75291Z" fill="#1F5FFF"/>
<path d="M22.041 35.4433C19.344 35.4433 16.911 34.3483 15.147 32.6055C13.383 30.8416 12.3092 28.4086 12.3092 25.7116C12.3092 23.0146 13.383 20.5816 15.147 18.8177C16.911 17.073 19.344 15.978 22.041 15.978H34.896C35.5052 14.883 36.66 14.1523 37.9979 14.1523C39.9855 14.1523 41.5664 15.7544 41.5664 17.7208C41.5664 19.7084 39.9855 21.3104 37.9979 21.3104C36.66 21.3104 35.5032 20.5605 34.896 19.4848H22.041C20.3175 19.4848 18.7559 20.173 17.6416 21.3104C16.5061 22.4247 15.816 23.9862 15.816 25.7116C15.816 27.437 16.5061 28.9966 17.6416 30.1109C18.7559 31.2464 20.3175 31.9347 22.041 31.9347H24.5761C25.5285 31.9347 26.3209 32.7251 26.3209 33.6986C26.3209 34.6722 25.5304 35.4414 24.5761 35.4414H22.041V35.4433Z" fill="#04CE78"/>
<path d="M47.7318 41.6681C47.7318 44.3652 46.6561 46.7981 44.8921 48.562C43.1281 50.326 40.6951 51.421 37.9981 51.421C35.3222 51.421 32.8873 50.326 31.1233 48.562C29.3593 46.7981 28.2643 44.3652 28.2643 41.6681V28.8327C27.1693 28.2042 26.4386 27.0474 26.4386 25.7095C26.4386 23.7431 28.0407 22.1411 30.0071 22.1411C31.9928 22.1411 33.5968 23.7431 33.5968 25.7095C33.5968 27.0474 32.8661 28.2042 31.7711 28.8327V41.6681C31.7711 43.3916 32.4593 44.9532 33.5968 46.0887C34.7323 47.2049 36.2726 47.9143 37.9961 47.9143C39.7196 47.9143 41.2812 47.2049 42.3955 46.0887C43.531 44.9532 44.2212 43.3916 44.2212 41.6681V39.1542C44.2212 38.1807 45.0116 37.3903 45.9852 37.3903C46.9587 37.3903 47.7299 38.1807 47.7299 39.1542V41.6681H47.7318Z" fill="#1F5FFF"/>
<path d="M5.98215 60.2214V64.1754H2.93998V60.2214H0V71.1503H2.93998V66.589H5.98215V71.1503H8.92213V60.2214H5.98215ZM16.4234 71.3739C19.668 71.3739 22.02 68.7983 22.02 65.6752C22.02 62.5329 19.668 59.9766 16.4234 59.9766C13.1576 59.9766 10.8057 62.5309 10.8057 65.6752C10.8076 68.8003 13.1595 71.3739 16.4234 71.3739ZM16.4234 68.6576C15.3072 68.6576 14.1524 68.0079 14.1524 65.656C14.1524 63.304 15.3091 62.6948 16.4234 62.6948C17.4972 62.6948 18.6733 63.3021 18.6733 65.656C18.6752 68.0079 17.4992 68.6576 16.4234 68.6576ZM29.9685 63.1421L30.3329 60.607C29.6235 60.3429 28.3858 59.9978 27.15 59.9978C25.4882 59.9978 23.2577 60.607 23.2577 63.2019C23.2577 65.2087 24.5763 65.8989 26.9881 66.9322C27.738 67.2561 28.3048 67.5009 28.3048 68.0465C28.3048 68.5728 27.7573 68.7154 27.1693 68.7154C26.3789 68.7154 25.2838 68.4725 23.7011 67.8845L23.2345 70.5411C24.9985 71.291 26.3982 71.3527 27.0459 71.3527C29.9049 71.3527 31.2833 70.1555 31.2833 68.0272C31.2833 66.1013 30.1478 65.1682 27.8151 64.2969C26.7413 63.8901 25.9702 63.7089 25.9702 63.2019C25.9702 62.7353 26.6391 62.5117 27.3698 62.5117C28.2662 62.5136 29.2186 62.8375 29.9685 63.1421ZM36.905 60.2214H32.789V71.1503H35.7502V67.7843C38.9948 67.7843 41.4065 67.1346 41.4065 63.7493C41.4065 61.2162 39.8642 60.2214 36.905 60.2214ZM35.7483 65.5153V62.3112H36.6814C37.3715 62.3112 38.507 62.3112 38.507 63.8515C38.507 65.494 37.8361 65.5153 35.7483 65.5153ZM46.2512 60.2214H43.2901V71.1503H46.2512V60.2214ZM56.2684 60.2214H47.5294V62.635H50.4289V71.1503H53.3689V62.635H56.2684V60.2214ZM63.8333 71.1522H67.4017L63.6501 60.2233H60.101L56.492 71.1522H60.0605L60.6273 68.7H63.2434L63.8333 71.1522ZM61.1767 66.2845L61.8264 63.4043H61.9883L62.6785 66.2845H61.1767ZM71.5582 60.2214H68.6182V71.1503H76V68.7367H71.5601V60.2214H71.5582Z" fill="#000D44"/>
<path d="M42.7637 76.3015C42.7637 76.1588 42.7425 76.0374 42.6827 75.9564C42.621 75.8542 42.5613 75.7732 42.4591 75.6923C42.3781 75.6306 42.276 75.5901 42.1757 75.5496C42.0755 75.5091 41.9521 75.4474 41.7901 75.407C41.6475 75.3472 41.526 75.3067 41.445 75.2855C41.3448 75.245 41.2619 75.2046 41.2021 75.1429C41.1212 75.1024 41.0595 75.0426 41.019 74.9597C40.9573 74.8788 40.938 74.7978 40.938 74.6956C40.938 74.5934 40.9592 74.5125 41.019 74.4315C41.0595 74.3718 41.1193 74.31 41.1809 74.2696C41.2619 74.2098 41.3428 74.1886 41.4238 74.1674C41.526 74.1462 41.607 74.1269 41.6879 74.1269C41.7901 74.1269 41.8711 74.1269 41.9521 74.1462C42.0331 74.1674 42.114 74.1867 42.1757 74.2272C42.2374 74.2676 42.2972 74.3081 42.3377 74.3891C42.3781 74.4508 42.3993 74.5317 42.3993 74.632H42.7039C42.6827 74.47 42.6441 74.3486 42.5825 74.2464C42.5015 74.1442 42.4205 74.0633 42.3184 74.0035C42.2162 73.963 42.1159 73.9226 42.0137 73.9014C41.8923 73.8609 41.7709 73.8608 41.6494 73.8608C41.5279 73.8608 41.4065 73.8801 41.285 73.9225C41.1636 73.963 41.0421 74.0035 40.9611 74.0845C40.859 74.1655 40.778 74.2464 40.7182 74.3679C40.6565 74.4701 40.6373 74.5915 40.6373 74.7322C40.6373 74.8749 40.6778 74.9964 40.7395 75.0966C40.7992 75.2181 40.8821 75.299 41.0036 75.38C41.1057 75.4398 41.2272 75.5014 41.3274 75.5419C41.4489 75.6036 41.5915 75.6422 41.7728 75.7039C41.8537 75.7231 41.9154 75.7444 41.9559 75.7636C42.0986 75.8041 42.22 75.8851 42.3203 75.9661C42.4013 76.047 42.463 76.1685 42.463 76.3112C42.463 76.4133 42.4437 76.5136 42.382 76.5945C42.3415 76.6562 42.2798 76.7372 42.1988 76.7777C42.1371 76.8394 42.0561 76.8798 41.9559 76.8991C41.8537 76.9184 41.7728 76.9396 41.6725 76.9396C41.5703 76.9396 41.4701 76.9184 41.3679 76.8991C41.2658 76.8779 41.1848 76.8586 41.1038 76.7969C41.044 76.7564 40.9823 76.6948 40.9418 76.6138C40.9014 76.5116 40.8802 76.4114 40.8802 76.3092H40.5563C40.5563 76.4307 40.5968 76.5521 40.6373 76.6543C40.699 76.7757 40.7587 76.8779 40.8397 76.9589C40.9419 77.0398 41.0421 77.1015 41.1636 77.142C41.2638 77.1825 41.3872 77.2037 41.5087 77.2037C41.6918 77.2037 41.8538 77.1825 41.9964 77.1632C42.1372 77.1228 42.2798 77.0823 42.4012 77.0013C42.5034 76.9415 42.6037 76.8394 42.6654 76.7179C42.7232 76.6273 42.7637 76.4654 42.7637 76.3015ZM43.6563 73.9303H43.3922V77.1536H43.6563V73.9303ZM46.0083 76.0393C46.0083 76.1415 45.9871 76.2629 45.9678 76.3632C45.9273 76.4653 45.8868 76.5656 45.8251 76.6678C45.7654 76.7487 45.6825 76.8297 45.5822 76.8914C45.5012 76.9531 45.3798 76.9724 45.2583 76.9724C45.1369 76.9724 45.0154 76.9531 44.9133 76.8914C44.8111 76.8316 44.7513 76.7487 44.6896 76.6678C44.6299 76.5656 44.5682 76.4653 44.547 76.3632C44.5065 76.261 44.5065 76.1395 44.5065 76.0393C44.5065 75.9178 44.5065 75.8157 44.547 75.6942C44.5682 75.592 44.6279 75.4918 44.6896 75.3896C44.7513 75.3087 44.8111 75.2277 44.9133 75.166C45.0154 75.1255 45.1369 75.085 45.2583 75.085C45.3798 75.085 45.5012 75.1255 45.5822 75.166C45.6844 75.2257 45.7654 75.3087 45.8251 75.3896C45.8868 75.4899 45.9273 75.592 45.9678 75.6942C45.989 75.8157 46.0083 75.9159 46.0083 76.0393ZM45.2583 74.8421C45.0752 74.8421 44.9345 74.8826 44.7918 74.9443C44.6704 75.0041 44.5489 75.1062 44.4679 75.2084C44.3869 75.3298 44.3253 75.4513 44.2848 75.594C44.2231 75.7366 44.2038 75.8774 44.2038 76.0393C44.2038 76.182 44.2231 76.3227 44.2848 76.4653C44.3253 76.6061 44.3869 76.7487 44.4679 76.8509C44.5489 76.9724 44.6704 77.0534 44.7918 77.115C44.9345 77.196 45.0752 77.2172 45.2583 77.2172C45.4203 77.2172 45.5822 77.196 45.7037 77.115C45.8464 77.0534 45.9466 76.9724 46.0488 76.8509C46.1298 76.7487 46.1914 76.608 46.2319 76.4653C46.2724 76.3227 46.2936 76.182 46.2936 76.0393C46.2936 75.8774 46.2743 75.7347 46.2319 75.594C46.1914 75.4513 46.1298 75.3298 46.0488 75.2084C45.9466 75.1062 45.8464 75.006 45.7037 74.9443C45.5822 74.8826 45.4203 74.8421 45.2583 74.8421ZM48.4008 75.9776C48.4008 76.099 48.3815 76.2012 48.3603 76.3227C48.3198 76.4249 48.2793 76.5251 48.2388 76.6061C48.1771 76.7082 48.0962 76.768 48.0152 76.8297C47.913 76.8702 47.8127 76.8895 47.6913 76.8895C47.5698 76.8895 47.4677 76.8683 47.3867 76.8085C47.2865 76.768 47.2035 76.687 47.163 76.6061C47.1014 76.5039 47.0609 76.423 47.0204 76.3015C47.0011 76.1993 46.9799 76.0991 46.9799 75.9969C46.9799 75.8754 47.0011 75.7733 47.0204 75.673C47.0609 75.5728 47.1014 75.4706 47.1419 75.3896C47.2016 75.2875 47.2845 75.2277 47.3636 75.166C47.4445 75.1255 47.566 75.085 47.6682 75.085C47.7896 75.085 47.8918 75.1255 47.992 75.166C48.073 75.2065 48.154 75.2874 48.2157 75.3684C48.2755 75.4494 48.3179 75.5516 48.3371 75.6518C48.3815 75.7752 48.4008 75.8754 48.4008 75.9776ZM48.4008 75.247L48.3815 75.2662C48.3005 75.1236 48.179 75.0233 48.0768 74.9424C47.9554 74.8807 47.8127 74.8402 47.6508 74.8402C47.4889 74.8402 47.3462 74.8807 47.2248 74.9424C47.1033 75.0021 47.003 75.085 46.9201 75.1853C46.8392 75.3067 46.7775 75.4282 46.7582 75.5708C46.7177 75.7135 46.6984 75.8543 46.6984 76.0162C46.6984 76.1781 46.7177 76.3208 46.7582 76.4615C46.7987 76.5829 46.8392 76.7044 46.9201 76.8066C47.0011 76.9087 47.1033 76.9897 47.2248 77.0495C47.3462 77.1112 47.4889 77.1305 47.6508 77.1305C47.8127 77.1305 47.9554 77.1093 48.0981 77.0283C48.2195 76.9473 48.3217 76.8451 48.3815 76.7237H48.4008V77.1286C48.4008 77.3117 48.3198 77.4736 48.1983 77.5738C48.0557 77.6953 47.8937 77.7551 47.7125 77.7551C47.5506 77.7551 47.4079 77.7358 47.2865 77.6741C47.165 77.6143 47.1033 77.5314 47.084 77.3907H46.8006C46.8006 77.5122 46.8218 77.6143 46.8816 77.6741C46.9221 77.7551 47.0031 77.8168 47.084 77.8765C47.165 77.917 47.2672 77.9575 47.3674 77.9787C47.4696 77.9999 47.5699 77.9999 47.672 77.9999C47.7935 77.9999 47.8744 77.9999 47.9554 77.9787C48.0171 77.9594 48.0981 77.9382 48.1983 77.8978C48.3005 77.8573 48.3815 77.7763 48.4412 77.7146C48.5222 77.6336 48.5627 77.5527 48.5839 77.4505C48.6244 77.3502 48.6456 77.248 48.6456 77.1459C48.6649 77.0437 48.6649 76.903 48.6649 76.7603V75.4012C48.6649 75.3202 48.6649 75.1776 48.6861 74.9751V74.8942H48.4027V75.247H48.4008ZM49.436 76.5251C49.436 76.4037 49.4553 76.3227 49.517 76.2417C49.5787 76.18 49.6597 76.1203 49.7599 76.0991C49.8621 76.0586 49.9623 76.0374 50.0838 76.0374C50.184 76.0374 50.3074 76.0181 50.4481 76.0181C50.5291 76.0181 50.5696 76.0181 50.5908 76.0181C50.5908 76.0374 50.5908 76.0586 50.5908 76.0798C50.6101 76.1203 50.6101 76.1395 50.6101 76.1395C50.6101 76.261 50.5908 76.3632 50.5696 76.4634C50.5503 76.5637 50.5098 76.6466 50.4674 76.7275C50.4057 76.8085 50.3459 76.8702 50.2438 76.9107C50.1628 76.9512 50.0606 76.9705 49.9199 76.9705C49.7772 76.9705 49.6558 76.9299 49.5748 76.849C49.4765 76.7892 49.436 76.6678 49.436 76.5251ZM50.5908 75.7752C50.5503 75.7752 50.4481 75.7752 50.3267 75.7752C50.1648 75.7752 50.0221 75.7752 49.9006 75.7964C49.7792 75.8176 49.6789 75.8369 49.5767 75.8774C49.4553 75.9391 49.3338 76.02 49.2529 76.1415C49.1719 76.2437 49.1314 76.3844 49.1314 76.527C49.1314 76.7295 49.2124 76.9126 49.355 77.0341C49.4977 77.1555 49.6596 77.2172 49.8833 77.2172C50.0259 77.2172 50.1667 77.1767 50.3093 77.115C50.4308 77.0341 50.533 76.9531 50.5735 76.8509L50.5946 76.8317H50.6139V77.1555H50.8973C50.8973 77.115 50.878 77.0746 50.878 77.0746C50.878 76.8914 50.878 76.7507 50.878 76.6485V75.594C50.878 75.3298 50.7971 75.1467 50.6544 75.0253C50.533 74.9038 50.3305 74.8421 50.0664 74.8421C49.8428 74.8421 49.6616 74.9038 49.4996 75.0041C49.357 75.1063 49.276 75.2682 49.2355 75.4706H49.5189C49.5401 75.3279 49.5999 75.2277 49.7021 75.1872C49.783 75.1274 49.9257 75.087 50.0664 75.087C50.2284 75.087 50.371 75.1274 50.452 75.2084C50.533 75.2701 50.5946 75.3916 50.5946 75.5747V75.7752H50.5908ZM51.8285 75.8562C51.8285 75.6537 51.8902 75.4706 51.9904 75.3086C52.1119 75.166 52.2738 75.085 52.4762 75.085C52.6594 75.085 52.8001 75.1448 52.9023 75.247C53.0045 75.3684 53.0642 75.5111 53.0642 75.7135V77.1536H53.3283V75.754C53.3283 75.6518 53.3284 75.5708 53.3091 75.4706C53.2879 75.3684 53.2474 75.2875 53.2069 75.1872C53.1452 75.087 53.0642 75.0041 52.964 74.9443C52.8425 74.8826 52.6999 74.8421 52.5379 74.8421C52.3953 74.8421 52.2545 74.8826 52.1331 74.9443C52.0116 75.0041 51.9094 75.1063 51.8497 75.2489H51.8304L51.8111 74.9038H51.547V74.9848C51.5682 75.1872 51.5682 75.3299 51.5682 75.4108V77.1555H51.8324V75.8562H51.8285ZM56.6346 75.5111V75.7752H57.4463V76.8104C57.3036 76.8509 57.1821 76.8914 57.0607 76.9126C56.9585 76.9319 56.8371 76.9531 56.7368 76.9531C56.5344 76.9531 56.33 76.9126 56.1893 76.8509C56.0273 76.7892 55.9059 76.689 55.8037 76.5675C55.7015 76.4268 55.6418 76.2841 55.6013 76.1222C55.5396 75.939 55.5203 75.7579 55.5203 75.5342C55.5203 75.3723 55.5415 75.1891 55.582 75.0272C55.6225 74.8652 55.6842 74.7226 55.7652 74.5818C55.8673 74.4392 55.9676 74.339 56.1103 74.258C56.2529 74.177 56.4149 74.1366 56.5961 74.1366C56.7985 74.1366 56.9817 74.177 57.1224 74.2792C57.2843 74.3814 57.3653 74.5433 57.3865 74.7245H57.7104C57.7104 74.5818 57.6699 74.4604 57.6082 74.3602C57.5272 74.258 57.4463 74.1577 57.3441 74.096C57.2438 74.0151 57.1205 73.9534 56.9797 73.9341C56.8583 73.8936 56.7156 73.8724 56.5942 73.8724C56.3705 73.8724 56.1681 73.9129 55.9849 74.0151C55.823 74.096 55.6803 74.2387 55.5589 74.3795C55.4374 74.5414 55.3565 74.7245 55.2948 74.9269C55.2331 75.1294 55.2138 75.3337 55.2138 75.5362C55.2138 75.8003 55.2331 76.0239 55.2948 76.2263C55.3565 76.4287 55.4567 76.6119 55.5782 76.7526C55.6804 76.9145 55.8211 77.0167 56.0042 77.0977C56.1874 77.1786 56.3705 77.2192 56.5922 77.2192C56.7947 77.2192 56.9971 77.198 57.1802 77.1787C57.3634 77.1382 57.5446 77.0977 57.7489 77.0167V75.5169H56.6346V75.5111ZM60.1414 76.0393C60.1414 76.1415 60.1221 76.2629 60.1009 76.3632C60.0604 76.4653 60.02 76.5656 59.9583 76.6678C59.8966 76.7487 59.8156 76.8297 59.7153 76.8914C59.6344 76.9531 59.5129 76.9724 59.3915 76.9724C59.2488 76.9724 59.1486 76.9531 59.0464 76.8914C58.9442 76.8316 58.8844 76.7487 58.8035 76.6678C58.7437 76.5656 58.7013 76.4653 58.682 76.3632C58.6415 76.261 58.6415 76.1395 58.6415 76.0393C58.6415 75.9178 58.6415 75.8157 58.682 75.6942C58.7013 75.592 58.7437 75.4918 58.8035 75.3896C58.8844 75.3087 58.9461 75.2277 59.0464 75.166C59.1486 75.1255 59.2488 75.085 59.3915 75.085C59.5129 75.085 59.6344 75.1255 59.7153 75.166C59.8175 75.2257 59.8985 75.3087 59.9583 75.3896C60.02 75.4899 60.0604 75.592 60.1009 75.6942C60.1221 75.8157 60.1414 75.9159 60.1414 76.0393ZM59.3915 74.8421C59.2083 74.8421 59.0676 74.8826 58.9249 74.9443C58.8035 75.0041 58.682 75.1062 58.601 75.2084C58.5201 75.3298 58.4584 75.4513 58.3986 75.594C58.3581 75.7366 58.3389 75.8774 58.3389 76.0393C58.3389 76.182 58.3581 76.3227 58.3986 76.4653C58.4603 76.6061 58.5201 76.7487 58.601 76.8509C58.682 76.9724 58.8035 77.0534 58.9249 77.115C59.0676 77.196 59.2083 77.2172 59.3915 77.2172C59.5534 77.2172 59.7153 77.196 59.8387 77.115C59.9814 77.0534 60.0817 76.9724 60.1626 76.8509C60.2648 76.7487 60.3245 76.608 60.365 76.4653C60.4055 76.3227 60.4267 76.182 60.4267 76.0393C60.4267 75.8774 60.4055 75.7347 60.365 75.594C60.3245 75.4513 60.2648 75.3298 60.1626 75.2084C60.0817 75.1062 59.9794 75.006 59.8387 74.9443C59.7173 74.8826 59.5534 74.8421 59.3915 74.8421ZM62.8789 76.0991C62.8789 75.9159 62.8597 75.754 62.8192 75.592C62.7787 75.4494 62.717 75.3086 62.636 75.2065C62.5551 75.085 62.4529 75.0041 62.3122 74.9424C62.1907 74.8807 62.0288 74.8402 61.8456 74.8402C61.6837 74.8402 61.541 74.8807 61.4196 74.9424C61.2981 75.0021 61.1959 75.085 61.0957 75.2065C61.0147 75.3086 60.953 75.4494 60.9125 75.592C60.8721 75.7347 60.8508 75.8754 60.8508 76.0374C60.8508 76.18 60.8721 76.342 60.9125 76.4827C60.953 76.6254 61.0147 76.7468 61.0957 76.847C61.1766 76.9685 61.2788 77.0495 61.4003 77.1112C61.5217 77.1922 61.6644 77.2134 61.8263 77.2134C62.3739 77.2134 62.7189 76.9493 62.8404 76.4422H62.557C62.5358 76.5849 62.4548 76.7256 62.3334 76.8278C62.2119 76.93 62.0693 76.9705 61.9285 76.9705C61.6644 76.9705 61.462 76.8895 61.3405 76.7275C61.2191 76.5656 61.1574 76.3632 61.1381 76.0991H62.8789ZM61.1555 75.8562C61.1767 75.6325 61.2364 75.4494 61.3579 75.3086C61.4793 75.166 61.6413 75.085 61.8437 75.085C62.0673 75.085 62.2486 75.166 62.3719 75.2875C62.4934 75.4301 62.5744 75.6113 62.5744 75.8562H61.1555ZM63.386 75.4706C63.386 75.5728 63.4072 75.6518 63.4477 75.7135C63.4882 75.7945 63.5286 75.8349 63.6096 75.8966C63.6713 75.9371 63.7311 75.9776 63.812 75.9988C63.893 76.02 63.974 76.0393 64.0954 76.0798C64.1166 76.0798 64.1359 76.0798 64.1764 76.0991C64.2786 76.1184 64.3595 76.1396 64.4193 76.1588C64.5003 76.1588 64.562 76.1993 64.6217 76.2205C64.6815 76.261 64.7239 76.3015 64.7644 76.342C64.7837 76.4037 64.8049 76.4634 64.8049 76.5251C64.8049 76.6678 64.7451 76.7892 64.6217 76.849C64.5196 76.9299 64.3789 76.9705 64.2169 76.9705C64.055 76.9705 63.9123 76.93 63.7908 76.8683C63.6694 76.8085 63.6077 76.6851 63.6077 76.5444H63.3031C63.3243 76.6659 63.3436 76.768 63.3841 76.849C63.4458 76.9299 63.5055 77.0109 63.5865 77.0514C63.6675 77.1131 63.7484 77.1536 63.8506 77.1729C63.9508 77.2134 64.053 77.2134 64.1552 77.2134C64.2767 77.2134 64.3981 77.1922 64.5003 77.1729C64.6218 77.1517 64.7239 77.0919 64.8049 77.0302C64.8858 76.9685 64.9668 76.9087 65.0285 76.8066C65.069 76.7044 65.0883 76.6042 65.0883 76.4827C65.0883 76.3613 65.0671 76.2591 64.9861 76.1588C64.9244 76.0779 64.8242 75.9969 64.722 75.9564C64.6005 75.9159 64.4386 75.8754 64.215 75.8138C64.0126 75.7733 63.8699 75.7116 63.7889 75.6711C63.7079 75.6306 63.6675 75.5496 63.6675 75.4474C63.6675 75.326 63.7292 75.245 63.8294 75.1834C63.9316 75.1236 64.0318 75.0831 64.1745 75.0831C64.3364 75.0831 64.4579 75.1236 64.56 75.1834C64.6622 75.245 64.722 75.326 64.7432 75.4667H65.0266C65.0054 75.2431 64.9244 75.0812 64.7837 74.979C64.641 74.898 64.4386 74.8363 64.2169 74.8363C64.0955 74.8363 63.9933 74.8575 63.9123 74.8768C63.8101 74.898 63.7291 74.9385 63.6482 74.979C63.5672 75.0407 63.5055 75.1005 63.465 75.1814C63.4072 75.2682 63.386 75.3684 63.386 75.4706ZM67.2996 77.1536V75.6133H69.0635V77.1536H69.3469V73.9303H69.0635V75.3491H67.2996V73.9303H67.0161V77.1536H67.2996ZM72.0459 76.0991C72.0459 75.9159 72.0247 75.754 71.9842 75.592C71.9437 75.4494 71.884 75.3086 71.8011 75.2065C71.7201 75.085 71.618 75.0041 71.4965 74.9424C71.3538 74.8807 71.1919 74.8402 71.0299 74.8402C70.868 74.8402 70.7253 74.8807 70.5846 74.9424C70.4631 75.0021 70.361 75.085 70.28 75.2065C70.199 75.3086 70.1373 75.4494 70.0776 75.592C70.0371 75.7347 70.0159 75.8754 70.0159 76.0374C70.0159 76.18 70.0371 76.342 70.0776 76.4827C70.1181 76.6254 70.1778 76.7468 70.2607 76.847C70.3417 76.9685 70.4439 77.0495 70.5846 77.1112C70.706 77.1922 70.8487 77.2134 71.0107 77.2134C71.537 77.2134 71.8821 76.9493 72.0247 76.4422H71.7413C71.7008 76.5849 71.6198 76.7256 71.4984 76.8278C71.3769 76.93 71.2555 76.9705 71.0916 76.9705C70.8275 76.9705 70.6463 76.8895 70.5036 76.7275C70.3822 76.5656 70.3205 76.3632 70.3205 76.0991H72.0459ZM70.3224 75.8562C70.3436 75.6325 70.4246 75.4494 70.546 75.3086C70.6675 75.166 70.8294 75.085 71.0319 75.085C71.2555 75.085 71.4175 75.166 71.5389 75.2875C71.6604 75.4301 71.7413 75.6113 71.7625 75.8562H70.3224ZM72.8961 75.7945C72.9173 75.592 72.9578 75.4089 73.0793 75.2875C73.1814 75.1448 73.3221 75.085 73.5265 75.085C73.5458 75.085 73.567 75.0851 73.6268 75.1043C73.648 75.1043 73.6673 75.1043 73.6885 75.1043V74.8402C73.6673 74.8402 73.648 74.8402 73.6075 74.8402C73.5477 74.8402 73.4861 74.8402 73.4244 74.8402C73.3029 74.8402 73.2007 74.8807 73.1197 74.9617C73.0176 75.0426 72.9578 75.1236 72.9173 75.2451H72.8961V74.9H72.6127C72.6127 74.9597 72.6127 74.9809 72.6127 75.0021C72.632 75.1641 72.632 75.3067 72.632 75.407V77.1517H72.8961V75.7945ZM75.998 76.0991C75.998 75.9159 75.998 75.754 75.9576 75.592C75.9171 75.4494 75.8554 75.3086 75.7744 75.2065C75.6934 75.085 75.5912 75.0041 75.4505 74.9424C75.329 74.8807 75.1671 74.8402 74.984 74.8402C74.822 74.8402 74.6794 74.8807 74.5579 74.9424C74.4365 75.0021 74.315 75.085 74.2341 75.2065C74.1531 75.3086 74.0914 75.4494 74.0509 75.592C74.0104 75.7347 73.9911 75.8754 73.9911 76.0374C73.9911 76.18 74.0104 76.342 74.0509 76.4827C74.0914 76.6254 74.1531 76.7468 74.2341 76.847C74.315 76.9685 74.4172 77.0495 74.5386 77.1112C74.6601 77.1922 74.8028 77.2134 74.9647 77.2134C75.5122 77.2134 75.8573 76.9493 75.9788 76.4422H75.6953C75.6761 76.5849 75.5951 76.7256 75.4737 76.8278C75.3522 76.93 75.2095 76.9705 75.0476 76.9705C74.8047 76.9705 74.6004 76.8895 74.4789 76.7275C74.3574 76.5656 74.2765 76.3632 74.2765 76.0991H75.998ZM74.2957 75.8562C74.315 75.6325 74.3767 75.4494 74.4981 75.3086C74.6196 75.166 74.7815 75.085 74.9859 75.085C75.2095 75.085 75.3907 75.166 75.5122 75.2875C75.6337 75.4301 75.6954 75.6113 75.7146 75.8562H74.2957Z" fill="#04CE78"/>
</svg>
