<svg width="78" height="78" viewBox="0 0 78 78" fill="none" xmlns="http://www.w3.org/2000/svg">
<path d="M6.13786 59.4127V63.5679H3.01651V59.4127H0V70.8365H3.01651V66.0666H6.13786V70.8365H9.15437V59.4127H6.13786ZM16.8529 71.0702C20.1819 71.0702 22.5951 68.378 22.5951 65.1135C22.5951 61.8288 20.1819 59.1567 16.8529 59.1567C13.5041 59.1567 11.0889 61.8268 11.0889 65.1135C11.0889 68.378 13.5041 71.0702 16.8529 71.0702ZM16.8529 68.2309C15.7096 68.2309 14.5228 67.5518 14.5228 65.0933C14.5228 62.6349 15.7096 61.9981 16.8529 61.9981C17.9546 61.9981 19.1613 62.6328 19.1613 65.0933C19.1613 67.5518 17.9546 68.2309 16.8529 68.2309ZM30.7506 62.4656L31.1245 59.8157C30.3965 59.5396 29.1266 59.1789 27.8587 59.1789C26.1517 59.1789 23.8631 59.8157 23.8631 62.5281C23.8631 64.6258 25.216 65.3472 27.6906 66.4495C28.46 66.7679 29.0436 67.0218 29.0436 67.6163C29.0436 68.1664 28.4818 68.2954 27.8785 68.2954C27.0675 68.2954 25.9439 68.0415 24.32 67.4269L23.8413 70.2037C25.6512 70.9876 27.0873 71.0521 27.7519 71.0521C30.6853 71.0521 32.0996 69.8007 32.0996 67.576C32.0996 65.5629 30.9346 64.6097 28.5431 63.6968C27.4394 63.2515 26.6501 63.0601 26.6501 62.5321C26.6501 62.0444 27.3365 61.8107 28.0862 61.8107C29.004 61.8087 29.9811 62.1472 30.7506 62.4656ZM37.8656 59.4127H33.6425V70.8365H36.6807V67.3181C40.0098 67.3181 42.4863 66.641 42.4863 63.1004C42.4843 60.4525 40.9038 59.4127 37.8656 59.4127ZM36.6807 64.9442V61.5951H37.6381C38.3463 61.5951 39.5093 61.5951 39.5093 63.2051C39.5093 64.9241 38.8229 64.9442 36.6807 64.9442ZM47.4571 59.4127H44.4188V70.8365H47.4571V59.4127ZM57.735 59.4127H48.7685V61.9356H51.7435V70.8385H54.76V61.9356H57.735V59.4127ZM65.4949 70.8365H69.1562L65.3069 59.4127H61.6653L57.9625 70.8365H61.6258L62.2093 68.2712H64.8935L65.4949 70.8365ZM62.7711 65.7724L63.4357 62.7417H63.6019L64.31 65.7724H62.7711ZM73.4228 59.4127H70.4063V70.8365H77.9802V68.3135H73.4248V59.4127H73.4228Z" fill="#000D44"/>
<path d="M43.8791 76.2205C43.8791 76.0714 43.8573 75.9444 43.796 75.8598C43.7327 75.755 43.6714 75.6683 43.5665 75.6059C43.4834 75.5212 43.3786 75.4789 43.2757 75.4366C43.1709 75.3943 43.0463 75.3298 42.8801 75.2875C42.7338 75.2452 42.6091 75.2028 42.5261 75.1605C42.4212 75.1182 42.3381 75.0759 42.2768 75.0114C42.1938 74.9691 42.1305 74.9046 42.0889 74.82C42.0256 74.7353 42.0059 74.6507 42.0059 74.5439C42.0059 74.4371 42.0256 74.3524 42.0889 74.2678C42.1305 74.2033 42.1938 74.1408 42.2551 74.0985C42.3382 74.0562 42.4213 74.0139 42.5043 73.9917C42.6072 73.9696 42.6922 73.9494 42.7753 73.9494C42.8801 73.9494 42.9632 73.9494 43.0463 73.9716C43.1294 73.9937 43.2125 74.0139 43.2757 74.0562C43.339 74.0985 43.4004 74.163 43.4419 74.2255C43.4835 74.288 43.5032 74.3746 43.5032 74.4794H43.8158C43.796 74.3101 43.7545 74.1832 43.6912 74.0764C43.6081 73.9696 43.525 73.8849 43.4201 73.8426C43.3153 73.7781 43.2124 73.7358 43.1076 73.7157C42.983 73.6733 42.8584 73.6733 42.7536 73.6733C42.6072 73.6733 42.4826 73.6955 42.358 73.7378C42.2333 73.7801 42.1087 73.8225 42.0236 73.9071C41.9208 73.9917 41.8357 74.0764 41.7744 74.2033C41.7111 74.3101 41.6913 74.4371 41.6913 74.5842C41.6913 74.7313 41.7329 74.8603 41.7962 74.9872C41.8595 75.094 41.9426 75.1787 42.0672 75.2633C42.1701 75.3479 42.2947 75.3902 42.3995 75.4547C42.5241 75.497 42.6705 75.5394 42.8564 75.6038C42.9395 75.624 43.0028 75.6462 43.0443 75.6683C43.1907 75.7107 43.3153 75.7953 43.4182 75.8799C43.5012 75.9646 43.5645 76.0915 43.5645 76.2608C43.5645 76.3454 43.5428 76.4522 43.4815 76.5369C43.4399 76.6215 43.3766 76.686 43.2936 76.7283C43.2303 76.7928 43.1472 76.8331 43.0443 76.8552C42.9395 76.8774 42.8564 76.8976 42.7536 76.8976C42.6507 76.8976 42.5459 76.8976 42.441 76.8754C42.3362 76.8532 42.2531 76.8109 42.17 76.7484C42.1087 76.7061 42.0454 76.6416 42.0039 76.557C41.9623 76.4724 41.9406 76.3656 41.9406 76.2386H41.6083C41.6083 76.3656 41.6498 76.4925 41.6913 76.5993C41.7546 76.7263 41.816 76.8331 41.899 76.9177C42.0039 77.0024 42.1067 77.0648 42.2313 77.1071C42.3342 77.1495 42.4608 77.1716 42.5854 77.1716C42.7733 77.1716 42.9395 77.1716 43.0859 77.1293C43.2322 77.087 43.3767 77.0447 43.5013 76.96C43.6061 76.8955 43.7089 76.7908 43.7722 76.6638C43.8375 76.559 43.8791 76.4119 43.8791 76.2205ZM44.7949 73.7398H44.5239V77.1092H44.7949V73.7398ZM47.2081 75.9444C47.2081 76.0512 47.1863 76.1782 47.1665 76.2829C47.125 76.4099 47.0835 76.4945 47.0202 76.6013C46.9569 76.7081 46.8738 76.7706 46.7709 76.8351C46.6879 76.8996 46.5632 76.9197 46.4386 76.9197C46.314 76.9197 46.1894 76.8976 46.0846 76.8351C45.9797 76.7726 45.9184 76.7081 45.8551 76.6013C45.7938 76.4966 45.7305 76.4099 45.7087 76.2829C45.6672 76.1761 45.6672 76.0492 45.6672 75.9444C45.6672 75.8175 45.6672 75.7107 45.7087 75.6059C45.7305 75.4789 45.7918 75.3721 45.8551 75.2875C45.9184 75.1807 45.9797 75.096 46.0846 75.0537C46.1894 74.9892 46.314 74.9469 46.4386 74.9469C46.5632 74.9469 46.6879 74.9892 46.7709 75.0537C46.8758 75.096 46.9588 75.1807 47.0202 75.2875C47.0835 75.3721 47.125 75.4789 47.1665 75.6059C47.1863 75.7127 47.2081 75.8175 47.2081 75.9444ZM46.4386 74.695C46.2507 74.695 46.1063 74.7373 45.96 74.8018C45.8353 74.8663 45.7107 74.9711 45.6277 75.0779C45.5446 75.2049 45.4813 75.3318 45.4397 75.4809C45.3764 75.628 45.3566 75.7772 45.3566 75.9464C45.3566 76.0935 45.3784 76.2648 45.4397 76.3918C45.4813 76.5409 45.5446 76.688 45.6277 76.7948C45.7107 76.9217 45.8353 77.0064 45.96 77.0709C46.1063 77.1555 46.2507 77.1777 46.4386 77.1777C46.6048 77.1777 46.771 77.1575 46.8956 77.0709C47.0419 77.0084 47.1448 76.9238 47.2496 76.7948C47.3327 76.688 47.396 76.5409 47.4376 76.3918C47.4791 76.2648 47.4989 76.0955 47.4989 75.9464C47.4989 75.7772 47.4791 75.628 47.4376 75.4809C47.396 75.3318 47.3327 75.2049 47.2496 75.0779C47.1448 74.9731 47.0419 74.8663 46.8956 74.8018C46.771 74.7373 46.6048 74.695 46.4386 74.695ZM49.6628 75.8819C49.6628 76.0089 49.6411 76.1157 49.6213 76.2426C49.5798 76.3494 49.5382 76.4542 49.4967 76.5389C49.4334 76.6457 49.3503 76.7081 49.2672 76.7726C49.1624 76.8149 49.0596 76.8351 48.9349 76.8351C48.8103 76.8351 48.7055 76.8129 48.6224 76.7726C48.5176 76.7081 48.4563 76.6235 48.393 76.5389C48.3297 76.4542 48.2881 76.3474 48.2466 76.2426C48.2268 76.1157 48.205 76.0089 48.205 75.9041C48.205 75.7993 48.2248 75.6703 48.2466 75.5656C48.2881 75.4588 48.3296 75.354 48.3712 75.2693C48.4345 75.1625 48.5175 75.1001 48.6006 75.0356C48.7054 74.9933 48.8083 74.9509 48.9132 74.9509C49.0378 74.9509 49.1426 74.9933 49.2455 75.0356C49.3285 75.1001 49.4116 75.1625 49.473 75.2472C49.5363 75.3318 49.5778 75.4386 49.6193 75.5434C49.6431 75.6703 49.6628 75.7751 49.6628 75.8819ZM49.6628 75.1182L49.6411 75.1404C49.558 74.9912 49.4334 74.8865 49.3286 74.822C49.204 74.7373 49.0576 74.695 48.8914 74.695C48.7253 74.695 48.5789 74.7373 48.4542 74.8018C48.3296 74.8663 48.2248 74.9509 48.1417 75.0779C48.0587 75.1847 47.9954 75.3116 47.9756 75.4588C47.934 75.6079 47.9123 75.755 47.9123 75.9242C47.9123 76.0935 47.934 76.2426 47.9756 76.3897C48.0171 76.5167 48.0804 76.6437 48.1417 76.7505C48.2248 76.8573 48.3296 76.9419 48.4542 77.0044C48.5789 77.0668 48.7253 77.1092 48.8914 77.1092C49.0576 77.1092 49.2039 77.0668 49.3503 76.9822C49.4749 76.8976 49.5797 76.7908 49.6411 76.6638H49.6628V77.1092C49.6628 77.3006 49.5798 77.4477 49.4551 77.5746C49.3088 77.6814 49.1426 77.7439 48.9567 77.7439C48.7905 77.7439 48.6441 77.7238 48.5195 77.6593C48.3949 77.5948 48.3316 77.5102 48.3118 77.3832H48.0211C48.0211 77.488 48.0408 77.5948 48.1041 77.6794C48.1457 77.7439 48.2288 77.8064 48.3118 77.8709C48.3949 77.9132 48.4997 77.9555 48.6026 77.9777C48.7074 77.9998 48.8103 77.9999 48.9349 77.9999C49.0378 77.9999 49.1228 77.9998 49.2059 77.9777C49.2692 77.9777 49.3523 77.9354 49.4551 77.893C49.56 77.8507 49.6431 77.7862 49.7044 77.7016C49.7875 77.617 49.829 77.5323 49.8705 77.4255C49.8903 77.3409 49.9121 77.2341 49.9121 77.1071C49.9319 77.0023 49.9318 76.8734 49.9318 76.7041V75.2834C49.9318 75.1988 49.9319 75.0497 49.9536 74.8603V74.7756H49.6628V75.1182ZM50.723 76.4542C50.723 76.3273 50.7448 76.2426 50.8062 76.158C50.8675 76.0935 50.9525 76.0512 51.0554 76.0089C51.1582 75.9666 51.2631 75.9444 51.3877 75.9444C51.4905 75.9444 51.6171 75.9444 51.7615 75.9222C51.8446 75.9222 51.8862 75.9222 51.9079 75.9222C51.9079 75.9444 51.9079 75.9645 51.9079 75.9867C51.9277 76.029 51.9277 76.0512 51.9277 76.0714C51.9277 76.1782 51.9079 76.2829 51.8862 76.3897C51.8664 76.4965 51.8248 76.5812 51.7813 76.6658C51.718 76.7505 51.6567 76.8149 51.5519 76.8573C51.4688 76.8996 51.3639 76.9217 51.2195 76.9217C51.0732 76.9217 50.9486 76.8794 50.8655 76.8149C50.7646 76.7283 50.723 76.6013 50.723 76.4542ZM51.9099 75.6703C51.8683 75.6703 51.7853 75.6703 51.6389 75.6703C51.4727 75.6703 51.3264 75.6925 51.2018 75.6925C51.0969 75.7147 50.9723 75.7348 50.8695 75.7771C50.7449 75.8416 50.6202 75.9263 50.5371 76.0532C50.454 76.16 50.4125 76.3071 50.4125 76.4562C50.4125 76.69 50.4956 76.8593 50.642 76.9862C50.7883 77.1132 50.9545 77.1777 51.182 77.1777C51.3283 77.1777 51.4727 77.1575 51.6191 77.0709C51.7437 76.9862 51.8485 76.9016 51.9099 76.7948V76.7746H51.9297V77.1132H52.2204C52.2204 77.0709 52.1987 77.0286 52.1987 77.0286C52.1987 76.8371 52.1987 76.7102 52.1987 76.5832V75.4809C52.1987 75.2049 52.1156 75.0154 51.9692 74.8865C51.8446 74.7595 51.6369 74.695 51.3659 74.695C51.1365 74.695 50.9505 74.7595 50.7844 74.8643C50.638 74.9711 50.5549 75.1404 50.5134 75.3721H50.8042C50.824 75.2028 50.8872 75.1182 50.9921 75.0537C51.0752 74.9892 51.2215 74.9469 51.3659 74.9469C51.5321 74.9469 51.6784 74.9892 51.7615 75.0739C51.8446 75.1383 51.9079 75.2653 51.9079 75.4547V75.6703H51.9099ZM53.1798 75.755C53.1798 75.5434 53.2431 75.3519 53.3459 75.1827C53.4705 75.0336 53.6367 74.9489 53.8444 74.9489C54.0323 74.9489 54.1767 75.0134 54.2816 75.1182C54.3864 75.2451 54.4477 75.3943 54.4477 75.6059V77.1112H54.7187V75.6482C54.7187 75.5635 54.7187 75.4567 54.6969 75.352C54.6772 75.2673 54.6356 75.1605 54.5941 75.0557C54.5308 74.9489 54.4477 74.8643 54.3448 74.8018C54.2202 74.7394 54.0739 74.695 53.9077 74.695C53.7613 74.695 53.6169 74.7373 53.4923 74.8018C53.3677 74.8865 53.2629 74.9933 53.2015 75.1202H53.1798L53.158 74.7817H52.8871V74.8663C52.9068 75.0577 52.9068 75.2048 52.9068 75.2895V77.1112H53.1778V75.755H53.1798ZM58.1091 75.3943V75.6703H58.9418V76.7726C58.7954 76.8149 58.6708 76.8351 58.5462 76.8573C58.4414 76.8996 58.3168 76.8996 58.2139 76.8996C58.0062 76.8996 57.7985 76.8573 57.6521 76.7928C57.486 76.7283 57.3613 76.6235 57.2565 76.4966C57.1517 76.3696 57.0904 76.2003 57.0489 76.0311C56.9856 75.8396 56.9657 75.6502 56.9657 75.4366C56.9657 75.2451 56.9875 75.0759 57.0291 74.8865C57.0706 74.7172 57.1339 74.5681 57.217 74.421C57.3198 74.2739 57.4247 74.1671 57.571 74.0824C57.7174 73.9978 57.8836 73.9555 58.0715 73.9555C58.2792 73.9555 58.4671 74.0199 58.6135 74.1247C58.7796 74.2315 58.8627 74.3786 58.8844 74.5701H59.2385C59.2187 74.4431 59.1752 74.3162 59.1139 74.1892C59.0308 74.0824 58.9477 73.9776 58.8429 73.9131C58.7381 73.8285 58.6135 73.764 58.4691 73.7439C58.3445 73.7016 58.1981 73.6794 58.0735 73.6794C57.844 73.6794 57.6363 73.7217 57.4484 73.8285C57.2822 73.9131 57.1359 74.0623 57.0112 74.2315C56.8866 74.3807 56.8036 74.5701 56.7403 74.7817C56.677 74.9933 56.6572 75.2048 56.6572 75.4386C56.6572 75.6925 56.677 75.9263 56.7403 76.1379C56.8036 76.3494 56.9064 76.5409 57.031 76.69C57.1359 76.8593 57.302 76.9661 57.4682 77.0507C57.6561 77.1354 57.842 77.1777 58.0715 77.1777C58.2792 77.1777 58.4869 77.1777 58.6748 77.1353C58.8627 77.093 59.0486 77.0507 59.2583 76.9661V75.3983H58.1091V75.3943ZM61.7091 75.9444C61.7091 76.0512 61.6873 76.1782 61.6675 76.2829C61.626 76.4099 61.5845 76.4945 61.5212 76.6013C61.4579 76.7081 61.3748 76.7706 61.2719 76.8351C61.1889 76.8996 61.0643 76.9197 60.9396 76.9197C60.7933 76.9197 60.6904 76.8976 60.5856 76.8351C60.4807 76.7726 60.4194 76.7081 60.3561 76.6013C60.2928 76.4966 60.2315 76.4099 60.2098 76.2829C60.1682 76.1761 60.1682 76.0492 60.1682 75.9444C60.1682 75.8175 60.1682 75.7107 60.2098 75.6059C60.2315 75.4789 60.2928 75.3721 60.3561 75.2875C60.4194 75.1807 60.4807 75.096 60.5856 75.0537C60.6884 74.9892 60.7933 74.9469 60.9396 74.9469C61.0643 74.9469 61.1889 74.9892 61.2719 75.0537C61.3768 75.096 61.4599 75.1807 61.5212 75.2875C61.5845 75.3721 61.626 75.4789 61.6675 75.6059C61.6893 75.7127 61.7091 75.8175 61.7091 75.9444ZM60.9396 74.695C60.7517 74.695 60.6073 74.7373 60.461 74.8018C60.3364 74.8663 60.2117 74.9711 60.1286 75.0779C60.0456 75.2049 59.9823 75.3318 59.9407 75.4809C59.8774 75.628 59.8577 75.7772 59.8577 75.9464C59.8577 76.0935 59.8774 76.2648 59.9407 76.3918C59.9823 76.5409 60.0456 76.688 60.1286 76.7948C60.2117 76.9217 60.3364 77.0064 60.461 77.0709C60.6073 77.1555 60.7517 77.1777 60.9396 77.1777C61.1058 77.1777 61.272 77.1575 61.3966 77.0709C61.543 77.0084 61.6458 76.9238 61.7506 76.7948C61.8337 76.688 61.897 76.5409 61.9386 76.3918C61.9801 76.2648 61.9998 76.0955 61.9998 75.9464C61.9998 75.7772 61.9801 75.628 61.9386 75.4809C61.897 75.3318 61.8337 75.2049 61.7506 75.0779C61.6458 74.9731 61.543 74.8663 61.3966 74.8018C61.272 74.7373 61.1058 74.695 60.9396 74.695ZM64.5179 76.0089C64.5179 75.8175 64.4962 75.6482 64.4566 75.4789C64.4151 75.3298 64.3518 75.1827 64.2687 75.0759C64.1856 74.9489 64.0807 74.8643 63.9364 74.7998C63.8117 74.7373 63.6456 74.693 63.4577 74.693C63.2915 74.693 63.1452 74.7353 63.0205 74.7998C62.8959 74.8643 62.7911 74.9489 62.6882 75.0759C62.6052 75.1827 62.5418 75.3298 62.5003 75.4789C62.4588 75.626 62.437 75.7751 62.437 75.9444C62.437 76.0915 62.4588 76.2628 62.5003 76.4099C62.5418 76.559 62.6052 76.686 62.6882 76.8129C62.7713 76.9197 62.8761 77.0044 63.0007 77.089C63.1254 77.1535 63.2717 77.1736 63.4379 77.1736C63.9996 77.1736 64.3537 76.8976 64.4783 76.3676H64.1876C64.1658 76.5167 64.0828 76.6638 63.9601 76.7706C63.8355 76.8754 63.6891 76.9197 63.5427 76.9197C63.2717 76.9197 63.064 76.8351 62.9394 76.6658C62.8148 76.4966 62.7515 76.285 62.7318 76.0089H64.5179ZM62.7495 75.755C62.7713 75.5212 62.8326 75.3318 62.9572 75.1827C63.0819 75.0336 63.248 74.9489 63.4577 74.9489C63.6871 74.9489 63.8731 75.0336 63.9997 75.1827C64.1243 75.3096 64.2074 75.5011 64.2074 75.755H62.7495ZM65.0381 75.352C65.0381 75.4588 65.0599 75.5434 65.1014 75.6059C65.143 75.6905 65.1845 75.755 65.2676 75.7973C65.3309 75.8396 65.3922 75.8819 65.4753 75.9021C65.5583 75.9243 65.6414 75.9444 65.766 75.9867C65.7878 75.9867 65.8076 75.9867 65.8491 76.0089C65.954 76.0311 66.0371 76.0512 66.0984 76.0714C66.1815 76.0915 66.2447 76.1137 66.306 76.1338C66.3693 76.1761 66.4109 76.2185 66.4524 76.2608C66.4722 76.3233 66.494 76.3877 66.494 76.4522C66.494 76.6013 66.4307 76.7283 66.3278 76.8129C66.2032 76.8774 66.0568 76.9197 65.8907 76.9197C65.7245 76.9197 65.5782 76.8976 65.4535 76.8129C65.3289 76.7505 65.2656 76.6437 65.2656 76.4744H64.9531C64.9748 76.6013 64.9946 76.7081 65.0362 76.7928C65.0995 76.8774 65.1608 76.9621 65.2439 77.0265C65.3269 77.0689 65.41 77.1112 65.5148 77.1333C65.6197 77.1756 65.7225 77.1757 65.8274 77.1757C65.952 77.1757 66.0766 77.1756 66.1814 77.1333C66.3061 77.1112 66.4109 77.0487 66.494 76.9842C66.5771 76.9217 66.6601 76.8573 66.7234 76.7505C66.765 76.6658 66.7848 76.5389 66.7848 76.4119C66.7848 76.285 66.765 76.1782 66.6819 76.0734C66.6186 75.9887 66.5157 75.9041 66.4109 75.8618C66.2863 75.8195 66.1201 75.7771 65.8907 75.7147C65.7028 75.6724 65.5584 75.63 65.4535 75.5656C65.3705 75.5232 65.3289 75.4386 65.3289 75.3318C65.3289 75.2048 65.3902 75.1202 65.4951 75.0557C65.5999 74.9912 65.7028 74.9489 65.8491 74.9489C66.0153 74.9489 66.1399 74.9912 66.2448 75.0557C66.3496 75.1202 66.4109 75.2048 66.4327 75.352H66.7234C66.7036 75.1182 66.6186 74.9489 66.4742 74.8441C66.3278 74.7595 66.1201 74.695 65.8927 74.695C65.768 74.695 65.6849 74.7172 65.5801 74.7373C65.4753 74.7575 65.3922 74.7998 65.3091 74.8421C65.2261 74.9066 65.1627 74.9691 65.1212 75.0537C65.0599 75.1404 65.0381 75.2452 65.0381 75.352ZM69.0733 77.1112V75.5011H70.8634V77.1112H71.1542V73.7419H70.8634V75.225H69.0733V73.7419H68.7608V77.1112H69.0733ZM73.9215 76.0089C73.9215 75.8175 73.9017 75.6482 73.8602 75.4789C73.8187 75.3298 73.7553 75.1827 73.6723 75.0759C73.6109 74.9489 73.4863 74.8643 73.3598 74.7998C73.2134 74.7373 73.0472 74.693 72.881 74.693C72.7149 74.693 72.5685 74.7353 72.4222 74.7998C72.2976 74.8643 72.1947 74.9489 72.1096 75.0759C72.0265 75.1827 71.9632 75.3298 71.9019 75.4789C71.8604 75.626 71.8386 75.7751 71.8386 75.9444C71.8386 76.0915 71.8604 76.2628 71.9019 76.4099C71.9435 76.559 72.0067 76.686 72.0898 76.8129C72.1729 76.9197 72.2778 77.0044 72.4222 77.089C72.5468 77.1535 72.6931 77.1736 72.8593 77.1736C73.3993 77.1736 73.7534 76.8976 73.8998 76.3676H73.609C73.5675 76.5167 73.4844 76.6638 73.3598 76.7706C73.2351 76.8754 73.1105 76.9197 72.9443 76.9197C72.6734 76.9197 72.4874 76.8351 72.341 76.6658C72.2164 76.4966 72.1531 76.285 72.1531 76.0089H73.9215ZM72.1531 75.755C72.1729 75.5212 72.258 75.3318 72.3826 75.1827C72.5072 75.0336 72.6733 74.9489 72.881 74.9489C73.1105 74.9489 73.2767 75.0336 73.4013 75.1827C73.5259 75.3096 73.609 75.5011 73.6307 75.755H72.1531ZM74.7958 75.7127C74.8176 75.4789 74.8591 75.2895 74.9837 75.1605C75.0886 75.0336 75.233 74.9489 75.4407 74.9489C75.4624 74.9489 75.4822 74.9711 75.5455 74.9711C75.5673 74.9711 75.587 74.9711 75.6068 74.9711V74.695C75.587 74.695 75.5653 74.695 75.5237 74.695C75.4604 74.695 75.3991 74.695 75.3358 74.695C75.2112 74.695 75.1063 74.7373 75.0233 74.822C74.9184 74.9066 74.8571 74.9912 74.8156 75.1182H74.7938V74.7796H74.5031C74.5031 74.822 74.5031 74.8421 74.5031 74.8643C74.5228 75.0336 74.5228 75.1827 74.5228 75.2875V77.1092H74.7938V75.7127H74.7958ZM78.0002 76.0089C78.0002 75.8175 77.9785 75.6482 77.9369 75.4789C77.8954 75.3298 77.8321 75.1827 77.749 75.0759C77.6659 74.9489 77.5611 74.8643 77.4167 74.7998C77.2921 74.7373 77.1259 74.693 76.938 74.693C76.7718 74.693 76.6255 74.7353 76.5009 74.7998C76.3762 74.8643 76.2516 74.9489 76.1686 75.0759C76.0855 75.1827 76.0222 75.3298 75.9807 75.4789C75.9391 75.626 75.9193 75.7751 75.9193 75.9444C75.9193 76.0915 75.9391 76.2628 75.9807 76.4099C76.0222 76.559 76.0855 76.686 76.1686 76.8129C76.2516 76.9197 76.3565 77.0044 76.4811 77.089C76.6057 77.1535 76.7521 77.1736 76.9182 77.1736C77.48 77.1736 77.8341 76.8976 77.9587 76.3676H77.6679C77.6481 76.5167 77.565 76.6638 77.4384 76.7706C77.3138 76.8754 77.1675 76.9197 77.0013 76.9197C76.7521 76.9197 76.5444 76.8351 76.4178 76.6658C76.2932 76.4966 76.2101 76.285 76.2101 76.0089H78.0002ZM76.2319 75.755C76.2517 75.5212 76.3149 75.3318 76.4395 75.1827C76.5641 75.0336 76.7303 74.9489 76.938 74.9489C77.1674 74.9489 77.3534 75.0336 77.478 75.1827C77.6026 75.3096 77.6659 75.5011 77.6857 75.755H76.2319Z" fill="#04CE78"/>
<path d="M46.9784 31.6458H58.4214C58.9614 31.6458 59.6062 31.285 60.1284 30.7551C60.6269 30.2251 61.0028 29.5883 61.0028 29.016V21.1126C61.0028 20.5403 60.6486 19.8834 60.1284 19.3534C59.6082 18.8456 58.9634 18.4627 58.4214 18.4627H48.0604V21.1126C48.0604 24.2703 46.3751 27.5772 43.9204 30.078C41.4656 32.5788 38.2197 34.2957 35.1201 34.2957H32.519V44.851C32.519 45.4031 32.8928 46.06 33.3933 46.59C33.9135 47.12 34.5583 47.4807 35.1201 47.4807H42.8799C43.3784 47.4807 43.9817 47.0575 44.4822 46.4852C45.0637 45.8505 45.4593 45.0646 45.4593 44.4499V32.9616C45.4593 32.2201 46.0428 31.6256 46.7707 31.6256C46.834 31.6256 46.9171 31.6256 46.9784 31.6458ZM58.4214 34.2957H48.0604V44.4479C48.0604 45.7417 47.3938 47.1825 46.4167 48.2848C45.4593 49.3447 44.1696 50.1286 42.8799 50.1286H35.1201C33.8304 50.1286 32.519 49.4495 31.5636 48.454C30.5864 47.4787 29.9198 46.1447 29.9198 44.851V34.2957H19.5806C18.3325 34.2957 17.0626 33.6589 16.1052 32.7057L16.0221 32.6412C15.0648 31.6458 14.4001 30.3097 14.4001 29.016V21.1126C14.4001 19.7987 15.0667 18.4627 16.0221 17.4874C16.9993 16.4919 18.3107 15.8128 19.5806 15.8128H29.9198V5.27765C29.9198 3.98393 30.5864 2.64991 31.5636 1.65242C32.5407 0.677089 33.8304 0 35.1201 0H42.8799C44.1063 0 45.3762 0.636787 46.3554 1.58995L46.4167 1.65443C47.3958 2.64991 48.0604 3.98595 48.0604 5.27967V15.8148H58.4214C59.6913 15.8148 61.0007 16.4919 61.9581 17.4894C62.9353 18.4849 63.6019 19.7987 63.6019 21.1146V29.02C63.6019 30.3137 62.9353 31.6478 61.9581 32.6453V32.6251C60.981 33.6186 59.6913 34.2957 58.4214 34.2957ZM45.4593 18.4627H32.519V31.6458H35.1201C37.4918 31.6458 40.0731 30.2251 42.0689 28.1898C44.0667 26.1545 45.4593 23.5268 45.4593 21.1106V18.4627ZM29.9178 18.4627H19.5786C19.0169 18.4627 18.3918 18.8436 17.8736 19.3736C17.3534 19.8814 16.9993 20.5403 16.9993 21.1126V29.018C16.9993 29.5903 17.3534 30.2271 17.8736 30.7571L17.9151 30.8195C18.4353 31.3072 19.0386 31.6458 19.5786 31.6458H29.9178V18.4627ZM32.519 15.8128H45.4593V5.27765C45.4593 4.70535 45.1053 4.06857 44.585 3.53859L44.5237 3.4741C44.0233 2.98644 43.4199 2.6479 42.8799 2.6479H35.1201C34.5583 2.6479 33.9135 3.00861 33.3933 3.53859C32.8948 4.06857 32.519 4.70535 32.519 5.27765V15.8128Z" fill="#04CE78"/>
</svg>
