<svg width="82" height="78" viewBox="0 0 82 78" fill="none" xmlns="http://www.w3.org/2000/svg">
<path d="M6.45262 58.8055V63.0908H3.19407V58.8055H0V70.5868H3.19407V65.6906H6.45262V70.5868H9.64669V58.8055H6.45262ZM17.7172 70.8279C21.2169 70.8279 23.7539 68.0514 23.7539 64.6868C23.7539 61.2994 21.2169 58.5665 17.7172 58.5665C14.1966 58.5665 11.6576 61.2994 11.6576 64.6868C11.6576 68.0514 14.1966 70.8279 17.7172 70.8279ZM17.7172 67.9205C16.5152 67.9205 15.2675 67.2201 15.2675 64.6847C15.2675 62.1265 16.5152 61.4719 17.7172 61.4719C18.8754 61.4719 20.146 62.1265 20.146 64.6847C20.1439 67.2201 18.8754 67.9205 17.7172 67.9205ZM32.3504 61.9748L32.7226 59.2419C31.9574 58.9365 30.6452 58.5645 29.2894 58.5645C27.4948 58.5645 25.091 59.2419 25.091 62.0392C25.091 64.1818 26.5341 64.9466 29.1147 66.0605C29.9237 66.3889 30.5371 66.6507 30.5371 67.2638C30.5371 67.8311 29.9466 67.9849 29.3123 67.9849C28.4597 67.9849 27.2994 67.7231 25.5713 67.0892L25.0681 69.9301C26.9708 70.7614 28.4805 70.8258 29.1792 70.8258C32.2631 70.8258 33.7499 69.5145 33.7499 67.2202C33.7499 65.144 32.548 64.159 30.0089 63.2196C28.8486 62.7832 28.0189 62.5629 28.0189 62.0392C28.0189 61.5363 28.7404 61.2744 29.5286 61.2744C30.4914 61.2744 31.5186 61.6464 32.3504 61.9748ZM39.8074 58.8055H35.3885V70.5868H38.5597V66.9583C42.0595 66.9583 44.6838 66.2808 44.6838 62.6086C44.6859 59.8986 43.0015 58.8055 39.8074 58.8055ZM38.5618 64.5102V61.0562H39.5683C40.3127 61.0562 41.5375 61.0562 41.5375 62.7396C41.5355 64.5102 40.8139 64.5102 38.5618 64.5102ZM49.8908 58.8055H46.6967V70.5868H49.8908V58.8055ZM60.6958 58.8055H51.2695V61.4074H54.397V70.5868H57.5911V61.4074H60.6978V58.8055H60.6958ZM68.8535 70.5868H72.7026L68.656 58.8055H64.8277L60.9349 70.5868H64.784L65.3954 67.9641H68.2172L68.8535 70.5868ZM65.9901 65.3622L66.6888 62.2366H66.8635L67.6079 65.3622H65.9901ZM77.1881 58.8055H74.0169V70.5868H82V67.9849H77.1881V58.8055Z" fill="#000D44"/>
<path d="M46.1292 76.1611C46.1292 76.0094 46.1084 75.8764 46.0418 75.7683C45.9982 75.6581 45.9108 75.5709 45.8235 75.5064C45.7133 75.4399 45.6051 75.3755 45.4949 75.3319C45.3847 75.2882 45.2537 75.2446 45.079 75.1781C44.9252 75.1344 44.7941 75.0908 44.7068 75.0471C44.5987 75.0035 44.5093 74.9599 44.4448 74.9162C44.3575 74.8497 44.2909 74.7853 44.2472 74.698C44.2036 74.6315 44.1599 74.5234 44.1599 74.4133C44.1599 74.3052 44.2036 74.2159 44.2472 74.1514C44.2909 74.0642 44.3575 73.9977 44.4448 73.954C44.5113 73.9104 44.5987 73.8667 44.7068 73.846C44.7941 73.8252 44.8815 73.8023 44.9688 73.8023C45.079 73.8023 45.1664 73.8252 45.2537 73.846C45.341 73.846 45.4284 73.8896 45.4949 73.9332C45.5615 73.954 45.6259 74.0205 45.6696 74.087C45.7133 74.1535 45.7362 74.2408 45.7362 74.3489H46.0647C46.0439 74.1951 46.0002 74.0641 45.9337 73.9561C45.8672 73.848 45.759 73.7587 45.6717 73.6942C45.5636 73.6298 45.4305 73.5862 45.3223 73.5633C45.1913 73.5425 45.0603 73.5197 44.9501 73.5197C44.7962 73.5197 44.6652 73.5425 44.5342 73.5841C44.4032 73.6277 44.293 73.6922 44.1849 73.7587C44.0767 73.8459 43.9873 73.9561 43.9229 74.0641C43.8563 74.1743 43.8355 74.3052 43.8355 74.459C43.8355 74.6128 43.8792 74.7645 43.9457 74.8746C44.0102 74.9848 44.1204 75.0929 44.2306 75.1594C44.3388 75.2466 44.4718 75.3132 44.58 75.3568C44.711 75.4004 44.8649 75.4669 45.0603 75.5106C45.1477 75.5542 45.2142 75.5771 45.2579 75.5771C45.4325 75.6436 45.5636 75.708 45.6509 75.7953C45.7611 75.9034 45.8048 76.0364 45.8048 76.1881C45.8048 76.2962 45.7819 76.3855 45.7174 76.4728C45.6738 76.5601 45.6072 76.6266 45.5428 76.691C45.4554 76.7346 45.3681 76.7783 45.2579 76.8011C45.1705 76.8448 45.0603 76.8448 44.9522 76.8448C44.8441 76.8448 44.7339 76.8448 44.6236 76.8219C44.5155 76.7991 44.4261 76.7575 44.3616 76.7139C44.2743 76.6473 44.2077 76.5829 44.1641 76.4957C44.1204 76.4084 44.0975 76.2982 44.0975 76.1673H43.7482C43.7482 76.2982 43.7918 76.4291 43.8355 76.5621C43.9021 76.6702 43.9665 76.7804 44.0767 76.8676C44.1641 76.9549 44.2743 77.0214 44.4053 77.0651C44.5155 77.1316 44.6465 77.1523 44.7983 77.1523C44.973 77.1523 45.1477 77.1316 45.3015 77.0879C45.4554 77.0651 45.6072 77.0007 45.7382 76.9342C45.8485 76.8469 45.9566 76.7596 46.0231 76.6287C46.1084 76.4894 46.1292 76.3356 46.1292 76.1611ZM47.092 73.6049H46.8071V77.0588H47.092V73.6049ZM49.6289 75.8556C49.6289 75.9865 49.6061 76.0966 49.5853 76.2047C49.5416 76.3356 49.4979 76.4458 49.4314 76.533C49.3648 76.6432 49.2775 76.7305 49.1902 76.7741C49.08 76.8406 48.9489 76.8843 48.8179 76.8843C48.6869 76.8843 48.5559 76.8406 48.4457 76.7741C48.3584 76.7305 48.271 76.6432 48.2045 76.533C48.14 76.4458 48.0735 76.3356 48.0506 76.2047C48.0069 76.0946 48.0069 75.9865 48.0069 75.8556C48.0069 75.7454 48.0069 75.6145 48.0506 75.5064C48.0714 75.3755 48.138 75.2653 48.2045 75.1781C48.271 75.07 48.3584 75.0035 48.4457 74.937C48.5559 74.8726 48.6869 74.8497 48.8179 74.8497C48.9489 74.8497 49.08 74.8726 49.1902 74.937C49.2775 75.0035 49.3648 75.0679 49.4314 75.1781C49.4979 75.2653 49.5416 75.3755 49.5853 75.5064C49.6061 75.6145 49.6289 75.7454 49.6289 75.8556ZM48.82 74.5879C48.6225 74.5879 48.4707 74.6086 48.3168 74.6751C48.1858 74.7624 48.0548 74.8497 47.9674 74.9806C47.8801 75.0887 47.8136 75.2217 47.7699 75.3734C47.7262 75.5272 47.6825 75.7018 47.6825 75.8535C47.6825 76.028 47.7262 76.1818 47.7699 76.3335C47.8136 76.4873 47.8801 76.6183 47.9674 76.7492C48.0548 76.8573 48.1858 76.9674 48.3168 77.0339C48.4707 77.0983 48.6225 77.142 48.82 77.142C48.9947 77.142 49.1694 77.0983 49.3004 77.0339C49.4543 76.9674 49.5624 76.8593 49.6726 76.7492C49.7599 76.6183 49.8265 76.4873 49.8702 76.3335C49.9138 76.1798 49.9367 76.028 49.9367 75.8535C49.9367 75.6997 49.9138 75.5251 49.8702 75.3734C49.8265 75.2217 49.7599 75.0887 49.6726 74.9806C49.5624 74.8497 49.4543 74.7624 49.3004 74.6751C49.1694 74.6086 48.9947 74.5879 48.82 74.5879ZM52.2096 75.8119C52.2096 75.9221 52.1888 76.053 52.1659 76.1611C52.143 76.2712 52.0785 76.3793 52.0349 76.4894C51.9683 76.5767 51.881 76.6432 51.7937 76.7076C51.6835 76.7721 51.5753 76.7949 51.4443 76.7949C51.3133 76.7949 51.2031 76.7513 51.1158 76.7076C51.0056 76.6411 50.9411 76.5767 50.8745 76.4666C50.808 76.3793 50.7643 76.2691 50.7207 76.1611C50.6999 76.0509 50.677 75.92 50.677 75.8119C50.677 75.7039 50.6978 75.5937 50.7207 75.4628C50.7643 75.3526 50.808 75.2446 50.8745 75.1573C50.9182 75.07 51.0056 74.9827 51.0929 74.9391C51.2031 74.8747 51.3112 74.8518 51.4214 74.8518C51.5524 74.8518 51.6627 74.8746 51.7708 74.9183C51.8581 74.9848 51.9455 75.0492 52.012 75.1594C52.0785 75.2466 52.1222 75.3568 52.1659 75.4649C52.1888 75.5708 52.2096 75.681 52.2096 75.8119ZM52.2096 75.0035L52.1888 75.0264C52.1014 74.8726 51.9912 74.7645 51.8602 74.698C51.7292 74.6107 51.5753 74.5899 51.4007 74.5899C51.226 74.5899 51.0721 74.6107 50.9411 74.6772C50.8101 74.7437 50.6999 74.8518 50.6125 74.9619C50.5252 75.0721 50.4815 75.203 50.4379 75.3547C50.3942 75.5085 50.3713 75.6602 50.3713 75.8348C50.3713 76.0093 50.3942 76.1631 50.4379 76.3149C50.4815 76.4686 50.5481 76.5995 50.6125 76.7097C50.6999 76.8178 50.8101 76.9071 50.9411 76.9715C51.0721 77.0152 51.226 77.0588 51.4214 77.0588C51.5753 77.0588 51.7271 77.0152 51.881 76.9279C52.012 76.8614 52.1222 76.7534 52.1867 76.5996H52.2075V77.0588C52.2075 77.2563 52.1201 77.408 51.9891 77.541C51.8353 77.6719 51.6606 77.7156 51.4651 77.7156C51.2904 77.7156 51.1366 77.6927 51.0055 77.6283C50.8745 77.5846 50.808 77.4745 50.7872 77.3436H50.4815C50.4815 77.4537 50.5044 77.5618 50.5689 77.649C50.6125 77.7363 50.6999 77.8028 50.7872 77.8465C50.8745 77.8901 50.9848 77.9338 51.0929 77.9566C51.2031 77.9774 51.3112 78.0003 51.4422 78.0003C51.5524 78.0003 51.6606 77.9774 51.7271 77.9774C51.8145 77.9566 51.881 77.9338 51.9891 77.8901C52.0993 77.8236 52.1867 77.7592 52.274 77.6719C52.3406 77.5846 52.3842 77.4974 52.4279 77.4101C52.4487 77.2999 52.4716 77.1918 52.4716 77.0817C52.4924 76.9508 52.4924 76.8198 52.4924 76.6453V75.203C52.4924 75.0929 52.4924 74.9412 52.5132 74.7437V74.6565H52.2075V75.0035H52.2096ZM53.3262 76.4021C53.3262 76.2712 53.347 76.1611 53.4136 76.0966C53.5009 76.0093 53.5882 75.9657 53.6985 75.9221C53.8087 75.8992 53.9168 75.8784 54.027 75.8576C54.1372 75.8576 54.2683 75.8576 54.4201 75.8576C54.5074 75.8576 54.5511 75.8576 54.5739 75.8576C54.5739 75.8576 54.5739 75.8784 54.5739 75.9221C54.5947 75.9429 54.5947 75.9657 54.5947 75.9886C54.5947 76.0987 54.5739 76.2296 54.5511 76.3169C54.5303 76.425 54.4845 76.5351 54.4408 76.6016C54.3743 76.6889 54.3098 76.7554 54.1996 76.7991C54.1123 76.8427 54.0021 76.8864 53.8503 76.8864C53.6964 76.8864 53.5654 76.8427 53.478 76.7554C53.3699 76.664 53.3262 76.5559 53.3262 76.4021ZM54.5719 75.5937C54.5282 75.5937 54.4408 75.5937 54.287 75.5937C54.1123 75.5937 53.9584 75.5937 53.8274 75.5937C53.7172 75.6166 53.5862 75.6373 53.4988 75.681C53.345 75.7475 53.2139 75.8348 53.1266 75.9657C53.0393 76.0966 52.9956 76.2276 52.9956 76.3813C52.9956 76.6224 53.0829 76.797 53.2368 76.9279C53.3907 77.0817 53.5862 77.1461 53.8066 77.1461C53.9605 77.1461 54.1123 77.1025 54.2662 77.0152C54.4201 76.9487 54.5074 76.8406 54.5719 76.7534V76.7097H54.5926V77.0588H54.8983C54.8983 77.0152 54.8983 76.9944 54.8983 76.9715C54.8754 76.797 54.8754 76.6432 54.8754 76.5123V75.3755C54.8754 75.1136 54.7881 74.8954 54.6342 74.7853C54.5032 74.6544 54.2849 74.5879 54.0208 74.5879C53.7588 74.5879 53.5612 74.6315 53.4094 74.7416C53.2348 74.8497 53.1474 75.0264 53.1037 75.2654H53.4094C53.4302 75.1116 53.4968 75.0035 53.607 74.937C53.6943 74.8726 53.8482 74.8497 54 74.8497C54.1975 74.8497 54.3286 74.8934 54.4159 74.9599C54.5032 75.0471 54.5698 75.1781 54.5698 75.3526V75.5937H54.5719ZM55.9069 75.681C55.9069 75.4399 55.9734 75.2446 56.0816 75.0908C56.2126 74.9162 56.3872 74.8497 56.6077 74.8497C56.8052 74.8497 56.957 74.8933 57.0672 75.0243C57.1754 75.1344 57.2419 75.309 57.2419 75.5043V77.0568H57.5268V75.548C57.5268 75.4607 57.5268 75.3506 57.506 75.2633C57.4852 75.1531 57.4394 75.0451 57.3958 74.9349C57.3292 74.8269 57.2419 74.7375 57.1338 74.6731C57.0027 74.6066 56.8717 74.5858 56.6742 74.5858C56.5203 74.5858 56.3685 74.6066 56.2375 74.6938C56.1065 74.7603 55.9963 74.8684 55.9318 75.0222L55.911 74.9993V74.6502H55.6053V74.7375C55.6282 74.9349 55.6282 75.0866 55.6282 75.1968V77.0547H55.9131V75.681H55.9069ZM61.1118 75.2861V75.5916H61.9644V76.7076C61.8105 76.7513 61.6795 76.7949 61.5485 76.8157C61.4383 76.8385 61.3073 76.8386 61.1991 76.8386C60.9808 76.8386 60.7833 76.8157 60.6086 76.7284C60.4339 76.6619 60.3029 76.5538 60.1927 76.4229C60.1053 76.292 60.018 76.1382 59.9743 75.9428C59.9307 75.7683 59.887 75.5501 59.887 75.3319C59.887 75.1344 59.9099 74.9599 59.9515 74.7853C59.9951 74.5879 60.0617 74.4362 60.1698 74.2824C60.2571 74.1514 60.3673 74.0205 60.5191 73.9332C60.673 73.8459 60.8477 73.8023 61.0432 73.8023C61.2615 73.8023 61.4591 73.8688 61.613 73.9769C61.7876 74.0849 61.875 74.2387 61.8978 74.4569H62.2701C62.2493 74.3031 62.2056 74.1722 62.1391 74.0621C62.0517 73.9311 61.9644 73.8439 61.8542 73.7566C61.744 73.6901 61.613 73.6257 61.4612 73.582C61.3301 73.5384 61.1763 73.5176 61.0453 73.5176C60.804 73.5176 60.5857 73.582 60.3881 73.6714C60.2135 73.7815 60.0596 73.9124 59.9286 74.087C59.7976 74.2616 59.7102 74.459 59.6437 74.6565C59.5772 74.8747 59.5563 75.1157 59.5563 75.3339C59.5563 75.5958 59.5772 75.8369 59.6437 76.0551C59.7082 76.2961 59.8184 76.4707 59.9494 76.6453C60.0596 76.7991 60.2343 76.93 60.4089 77.0173C60.6065 77.1046 60.802 77.1482 61.0432 77.1482C61.2615 77.1482 61.4799 77.1274 61.6774 77.0838C61.875 77.0609 62.0704 76.9965 62.2888 76.93V75.2903H61.1118V75.2861ZM64.8736 75.8556C64.8736 75.9865 64.8528 76.0966 64.8299 76.2047C64.7862 76.3356 64.7426 76.4458 64.676 76.533C64.6116 76.6432 64.5221 76.7305 64.414 76.7741C64.3267 76.8406 64.1957 76.8843 64.0647 76.8843C63.9337 76.8843 63.8026 76.8406 63.6924 76.7741C63.6051 76.7305 63.5177 76.6432 63.4512 76.533C63.3847 76.4458 63.3202 76.3356 63.2973 76.2047C63.2537 76.0946 63.2537 75.9865 63.2537 75.8556C63.2537 75.7454 63.2537 75.6145 63.2973 75.5064C63.3181 75.3755 63.3847 75.2653 63.4512 75.1781C63.5177 75.07 63.6051 75.0035 63.6924 74.937C63.8026 74.8726 63.9337 74.8497 64.0647 74.8497C64.1957 74.8497 64.3267 74.8726 64.414 74.937C64.5242 75.0035 64.6116 75.0679 64.676 75.1781C64.7426 75.2653 64.7862 75.3755 64.8299 75.5064C64.8528 75.6145 64.8736 75.7454 64.8736 75.8556ZM64.0647 74.5879C63.8671 74.5879 63.7153 74.6086 63.5614 74.6751C63.4304 74.7624 63.2994 74.8497 63.2121 74.9806C63.1247 75.0887 63.0582 75.2217 63.0145 75.3734C62.948 75.5272 62.9272 75.7018 62.9272 75.8535C62.9272 76.028 62.948 76.1818 63.0145 76.3335C63.0582 76.4873 63.1247 76.6183 63.2121 76.7492C63.2994 76.8573 63.4304 76.9674 63.5614 77.0339C63.7153 77.0983 63.8671 77.142 64.0647 77.142C64.2393 77.142 64.414 77.0983 64.545 77.0339C64.6989 76.9674 64.807 76.8593 64.9172 76.7492C65.0046 76.6183 65.0711 76.4873 65.1148 76.3335C65.1585 76.1798 65.1813 76.028 65.1813 75.8535C65.1813 75.6997 65.1605 75.5251 65.1148 75.3734C65.0711 75.2196 65.0046 75.0887 64.9172 74.9806C64.807 74.8497 64.6989 74.7624 64.545 74.6751C64.414 74.6086 64.2393 74.5879 64.0647 74.5879ZM67.8264 75.92C67.8264 75.7226 67.8056 75.548 67.762 75.3963C67.7183 75.2217 67.6518 75.0908 67.5644 74.9599C67.4771 74.8497 67.3669 74.7417 67.2359 74.6751C67.082 74.6086 66.9073 74.5879 66.7118 74.5879C66.5372 74.5879 66.3833 74.6086 66.2523 74.6751C66.1212 74.7417 66.011 74.8497 65.9237 74.9599C65.8135 75.0908 65.749 75.2217 65.7054 75.3755C65.6617 75.5293 65.6388 75.7038 65.6388 75.8556C65.6388 76.0301 65.6617 76.1839 65.7054 76.3356C65.749 76.4894 65.8156 76.6203 65.9029 76.7513C65.9903 76.8593 66.1005 76.9695 66.2315 77.036C66.3625 77.1004 66.5372 77.1441 66.691 77.1441C67.2816 77.1441 67.6538 76.8593 67.7848 76.292H67.4999C67.4563 76.4666 67.369 76.5975 67.2379 76.7076C67.1069 76.8157 66.953 76.8822 66.8012 76.8822C66.5163 76.8822 66.298 76.7949 66.167 76.5975C66.036 76.4229 65.9695 76.2047 65.9487 75.92H67.8264ZM65.9674 75.6581C65.9902 75.4399 66.0547 75.2425 66.1857 75.0679C66.3167 74.9141 66.4914 74.8497 66.7326 74.8497C66.9738 74.8497 67.1485 74.9162 67.2795 75.0679C67.4105 75.2217 67.4979 75.4171 67.4979 75.6581H65.9674ZM68.3733 75.2425C68.3733 75.3526 68.3962 75.4399 68.4399 75.5272C68.4835 75.5916 68.5501 75.6581 68.6146 75.7018C68.6811 75.7454 68.7456 75.7891 68.8329 75.8098C68.9202 75.8535 69.0076 75.8743 69.1386 75.8971C69.1614 75.8971 69.1822 75.92 69.2259 75.92C69.3361 75.9408 69.4235 75.9636 69.5108 75.9865C69.5773 76.0093 69.6418 76.0301 69.7084 76.0738C69.7749 76.0966 69.8186 76.1403 69.8622 76.2047C69.883 76.2483 69.9059 76.3148 69.9059 76.4021C69.9059 76.5559 69.8394 76.664 69.7312 76.7513C69.6002 76.8386 69.4463 76.8822 69.2717 76.8822C69.097 76.8822 68.9431 76.8385 68.8121 76.772C68.6811 76.6848 68.6146 76.5746 68.6146 76.4H68.286C68.3068 76.531 68.3297 76.6411 68.3733 76.7284C68.4399 76.8386 68.5043 76.903 68.5917 76.9695C68.679 77.036 68.7664 77.0796 68.8766 77.1004C68.9868 77.1233 69.0949 77.1441 69.2051 77.1441C69.3361 77.1441 69.4671 77.1233 69.5774 77.0796C69.7084 77.0568 69.8186 77.0131 69.9059 76.9487C70.0161 76.8822 70.0806 76.7949 70.1471 76.6868C70.1908 76.5995 70.2137 76.4894 70.2137 76.3585C70.2137 76.2276 70.1908 76.0966 70.1034 76.0093C70.039 75.8992 69.9496 75.8348 69.8186 75.7911C69.6876 75.7475 69.5129 75.681 69.2945 75.6374C69.0762 75.5709 68.9223 75.5272 68.835 75.4836C68.7476 75.4191 68.704 75.3526 68.704 75.2425C68.704 75.1116 68.7476 75.0014 68.8578 74.937C68.9681 74.8726 69.0762 74.8497 69.2301 74.8497C69.4048 74.8497 69.5358 74.8726 69.646 74.937C69.7562 75.0035 69.8206 75.1116 69.8435 75.2425H70.1492C70.1284 75.0014 70.039 74.8497 69.8872 74.7396C69.7333 74.6294 69.515 74.5858 69.2758 74.5858C69.1656 74.5858 69.0575 74.5858 68.9473 74.6066C68.8371 74.6273 68.7497 74.6731 68.6624 74.7375C68.575 74.7811 68.5085 74.8456 68.4648 74.9349C68.3962 75.0243 68.3733 75.1344 68.3733 75.2425ZM72.6155 77.0568V75.3963H74.4974V77.0568H74.826V73.6049H74.4974V75.1136H72.6155V73.6049H72.2869V77.0588H72.6155V77.0568ZM77.7123 75.92C77.7123 75.7226 77.6915 75.548 77.6457 75.3963C77.602 75.2217 77.5584 75.0908 77.471 74.9599C77.3837 74.8497 77.2527 74.7417 77.1217 74.6751C76.9678 74.6086 76.816 74.5879 76.6185 74.5879C76.4438 74.5879 76.2899 74.6086 76.1381 74.6751C76.0071 74.7417 75.8969 74.8497 75.8095 74.9599C75.7222 75.0908 75.6556 75.2217 75.612 75.3755C75.5475 75.5293 75.5247 75.7038 75.5247 75.8556C75.5247 76.0301 75.5454 76.1839 75.5912 76.3356C75.6349 76.4894 75.7014 76.6203 75.7887 76.7513C75.8761 76.8593 75.9863 76.9695 76.1381 77.036C76.2691 77.1004 76.423 77.1441 76.5976 77.1441C77.1653 77.1441 77.5376 76.8593 77.6915 76.292H77.3858C77.3421 76.4666 77.2548 76.5975 77.1445 76.7076C77.0135 76.8157 76.8597 76.8822 76.685 76.8822C76.4001 76.8822 76.2046 76.7949 76.0508 76.5975C75.9198 76.4229 75.8532 76.2047 75.8532 75.92H77.7123ZM75.8532 75.6581C75.8761 75.4399 75.9634 75.2425 76.0944 75.0679C76.2254 74.9141 76.4001 74.8497 76.6185 74.8497C76.8597 74.8497 77.0344 74.9162 77.1654 75.0679C77.3192 75.2217 77.3837 75.4171 77.4066 75.6581H75.8532ZM78.6314 75.6145C78.6543 75.3734 78.7187 75.1781 78.8289 75.0451C78.9392 74.9141 79.0909 74.8476 79.3093 74.8476C79.3322 74.8476 79.3758 74.8476 79.4195 74.8476C79.4403 74.8476 79.4632 74.8705 79.486 74.8705V74.5858C79.4652 74.5858 79.4424 74.5858 79.3987 74.5858C79.3322 74.5858 79.2677 74.5858 79.2012 74.5858C79.0701 74.5858 78.9599 74.6294 78.8726 74.6938C78.7624 74.7811 78.6979 74.8913 78.6543 74.9993H78.6314V74.6502H78.3257C78.3257 74.6939 78.3257 74.7167 78.3257 74.7375C78.3465 74.9349 78.3465 75.0659 78.3465 75.1968V77.0547H78.6314V75.6145ZM82.0001 75.92C82.0001 75.7226 81.9773 75.548 81.9336 75.3963C81.8899 75.2217 81.8234 75.0908 81.736 74.9599C81.6487 74.8497 81.5385 74.7417 81.3867 74.6751C81.2557 74.6086 81.081 74.5879 80.8835 74.5879C80.7088 74.5879 80.5549 74.6086 80.4239 74.6751C80.2929 74.7417 80.1827 74.8497 80.0745 74.9599C79.9872 75.0908 79.9207 75.2217 79.877 75.3755C79.8333 75.5293 79.8105 75.7038 79.8105 75.8556C79.8105 76.0301 79.8312 76.1839 79.877 76.3356C79.9207 76.4894 79.9872 76.6203 80.0745 76.7513C80.1619 76.8593 80.2721 76.9695 80.4031 77.036C80.5341 77.1004 80.688 77.1441 80.8627 77.1441C81.4532 77.1441 81.8255 76.8593 81.9565 76.292H81.6508C81.6279 76.4666 81.5406 76.5975 81.4096 76.7076C81.2785 76.8157 81.1247 76.8822 80.9729 76.8822C80.688 76.8822 80.4697 76.7949 80.3386 76.5975C80.2076 76.4229 80.1411 76.2047 80.1203 75.92H82.0001ZM80.1411 75.6581C80.1619 75.4399 80.2284 75.2425 80.3594 75.0679C80.4904 74.9141 80.6651 74.8497 80.8835 74.8497C81.1247 74.8497 81.3202 74.9162 81.4512 75.0679C81.5822 75.2217 81.6695 75.4171 81.6695 75.6581H80.1411Z" fill="#04CE78"/>
<path d="M62.7628 1.73395C71.4946 6.83801 72.2515 21.7761 64.4555 35.0994C56.6596 48.4228 43.2594 55.0876 34.5277 49.9835C25.796 44.8795 25.039 29.9414 32.835 16.618C40.633 3.29468 54.0311 -3.37011 62.7628 1.73395Z" fill="#04CE78"/>
<path d="M19.2268 1.70927C10.4992 6.82372 9.75682 21.7535 17.5424 35.0872C25.3508 48.421 38.7593 55.0878 47.4848 49.9942C56.2123 44.9005 56.9547 29.9499 49.1692 16.6162C41.3607 3.28454 27.9543 -3.38232 19.2268 1.70927Z" fill="#1F5FFF"/>
</svg>
